<?xml version="1.0" encoding="utf-8"?>
<!-- Generator: Adobe Illustrator 27.5.0, SVG Export Plug-In . SVG Version: 6.00 Build 0)  -->
<svg version="1.1" xmlns="http://www.w3.org/2000/svg" xmlns:xlink="http://www.w3.org/1999/xlink" x="0px" y="0px"
	 viewBox="0 0 16.1 16.1" style="enable-background:new 0 0 16.1 16.1;" xml:space="preserve">
<style type="text/css">
	.st0{fill-rule:evenodd;clip-rule:evenodd;}
</style>
<g id="图层_1">
	<path class="st0" d="M15.9,14.8c0.3,0.3,0.1,0.6-0.2,0.9c0,0.1-0.1,0.1-0.1,0.2c-0.3,0.2-0.6,0.4-0.9,0.1l-3.5-3.5
		C10,13.4,8.5,13.9,7,13.9c-3.8,0-6.9-3.1-6.9-6.9c0-3.8,3.1-6.9,6.9-6.9C10.8,0.1,14,3.1,14,7c0,1.6-0.5,3.1-1.5,4.3L15.9,14.8z
		 M1.7,7c0,2.9,2.4,5.3,5.3,5.3c2.9,0,5.3-2.4,5.3-5.3C12.3,4,9.9,1.7,7,1.7C4.1,1.7,1.7,4.1,1.7,7z"/>
</g>
<g id="图层_2">
</g>
</svg>
